<mxfile host="app.diagrams.net" modified="2023-04-04T01:47:54.853Z" agent="Mozilla/5.0 (Windows NT 10.0; Win64; x64) AppleWebKit/537.36 (KHTML, like Gecko) Chrome/111.0.0.0 Safari/537.36 Edg/111.0.1661.54" etag="EIsbM2k7Ee4SXkXAAGLo" version="21.1.4" type="device">
  <diagram id="C5RBs43oDa-KdzZeNtuy" name="Page-1">
    <mxGraphModel dx="1434" dy="796" grid="1" gridSize="10" guides="1" tooltips="1" connect="1" arrows="1" fold="1" page="1" pageScale="1" pageWidth="827" pageHeight="1169" math="0" shadow="0">
      <root>
        <mxCell id="WIyWlLk6GJQsqaUBKTNV-0" />
        <mxCell id="WIyWlLk6GJQsqaUBKTNV-1" parent="WIyWlLk6GJQsqaUBKTNV-0" />
        <mxCell id="JR2uH29SDUwAoWFC0fF9-4" value="" style="edgeStyle=orthogonalEdgeStyle;rounded=0;orthogonalLoop=1;jettySize=auto;html=1;" edge="1" parent="WIyWlLk6GJQsqaUBKTNV-1" source="JR2uH29SDUwAoWFC0fF9-0" target="JR2uH29SDUwAoWFC0fF9-3">
          <mxGeometry relative="1" as="geometry" />
        </mxCell>
        <mxCell id="JR2uH29SDUwAoWFC0fF9-0" value="Start" style="ellipse;whiteSpace=wrap;html=1;fillColor=#f8cecc;strokeColor=#b85450;" vertex="1" parent="WIyWlLk6GJQsqaUBKTNV-1">
          <mxGeometry x="40" y="40" width="120" height="80" as="geometry" />
        </mxCell>
        <mxCell id="JR2uH29SDUwAoWFC0fF9-6" value="" style="edgeStyle=orthogonalEdgeStyle;rounded=0;orthogonalLoop=1;jettySize=auto;html=1;" edge="1" parent="WIyWlLk6GJQsqaUBKTNV-1" source="JR2uH29SDUwAoWFC0fF9-3" target="JR2uH29SDUwAoWFC0fF9-5">
          <mxGeometry relative="1" as="geometry" />
        </mxCell>
        <mxCell id="JR2uH29SDUwAoWFC0fF9-3" value="Configure Addresses" style="whiteSpace=wrap;html=1;fillColor=#fff2cc;strokeColor=#d6b656;" vertex="1" parent="WIyWlLk6GJQsqaUBKTNV-1">
          <mxGeometry x="40" y="160" width="120" height="40" as="geometry" />
        </mxCell>
        <mxCell id="JR2uH29SDUwAoWFC0fF9-8" value="" style="edgeStyle=orthogonalEdgeStyle;rounded=0;orthogonalLoop=1;jettySize=auto;html=1;" edge="1" parent="WIyWlLk6GJQsqaUBKTNV-1" source="JR2uH29SDUwAoWFC0fF9-5" target="JR2uH29SDUwAoWFC0fF9-7">
          <mxGeometry relative="1" as="geometry" />
        </mxCell>
        <mxCell id="JR2uH29SDUwAoWFC0fF9-5" value="Configure AddrGrps" style="whiteSpace=wrap;html=1;fillColor=#fff2cc;strokeColor=#d6b656;" vertex="1" parent="WIyWlLk6GJQsqaUBKTNV-1">
          <mxGeometry x="40" y="240" width="120" height="40" as="geometry" />
        </mxCell>
        <mxCell id="JR2uH29SDUwAoWFC0fF9-10" value="" style="edgeStyle=orthogonalEdgeStyle;rounded=0;orthogonalLoop=1;jettySize=auto;html=1;" edge="1" parent="WIyWlLk6GJQsqaUBKTNV-1" source="JR2uH29SDUwAoWFC0fF9-7" target="JR2uH29SDUwAoWFC0fF9-9">
          <mxGeometry relative="1" as="geometry" />
        </mxCell>
        <mxCell id="JR2uH29SDUwAoWFC0fF9-7" value="Configure Services" style="whiteSpace=wrap;html=1;fillColor=#fff2cc;strokeColor=#d6b656;" vertex="1" parent="WIyWlLk6GJQsqaUBKTNV-1">
          <mxGeometry x="40" y="320" width="120" height="40" as="geometry" />
        </mxCell>
        <mxCell id="JR2uH29SDUwAoWFC0fF9-12" value="" style="edgeStyle=orthogonalEdgeStyle;rounded=0;orthogonalLoop=1;jettySize=auto;html=1;" edge="1" parent="WIyWlLk6GJQsqaUBKTNV-1" source="JR2uH29SDUwAoWFC0fF9-9" target="JR2uH29SDUwAoWFC0fF9-11">
          <mxGeometry relative="1" as="geometry" />
        </mxCell>
        <mxCell id="JR2uH29SDUwAoWFC0fF9-9" value="Configure ServiceGrps" style="whiteSpace=wrap;html=1;fillColor=#fff2cc;strokeColor=#d6b656;" vertex="1" parent="WIyWlLk6GJQsqaUBKTNV-1">
          <mxGeometry x="40" y="400" width="120" height="40" as="geometry" />
        </mxCell>
        <mxCell id="JR2uH29SDUwAoWFC0fF9-41" value="" style="edgeStyle=orthogonalEdgeStyle;rounded=0;orthogonalLoop=1;jettySize=auto;html=1;" edge="1" parent="WIyWlLk6GJQsqaUBKTNV-1" source="JR2uH29SDUwAoWFC0fF9-11" target="JR2uH29SDUwAoWFC0fF9-40">
          <mxGeometry relative="1" as="geometry" />
        </mxCell>
        <mxCell id="JR2uH29SDUwAoWFC0fF9-11" value="Create new&lt;br&gt;Policy-Package" style="whiteSpace=wrap;html=1;fillColor=#fff2cc;strokeColor=#d6b656;" vertex="1" parent="WIyWlLk6GJQsqaUBKTNV-1">
          <mxGeometry x="40" y="480" width="120" height="40" as="geometry" />
        </mxCell>
        <mxCell id="JR2uH29SDUwAoWFC0fF9-15" value="Stop" style="ellipse;whiteSpace=wrap;html=1;fillColor=#f8cecc;strokeColor=#b85450;" vertex="1" parent="WIyWlLk6GJQsqaUBKTNV-1">
          <mxGeometry x="40" y="640" width="120" height="80" as="geometry" />
        </mxCell>
        <mxCell id="JR2uH29SDUwAoWFC0fF9-17" value="&lt;b&gt;&lt;u&gt;For Each Configuration Object&lt;/u&gt;&lt;/b&gt;" style="text;html=1;align=left;verticalAlign=middle;resizable=0;points=[];autosize=1;strokeColor=none;fillColor=none;" vertex="1" parent="WIyWlLk6GJQsqaUBKTNV-1">
          <mxGeometry x="370" y="10" width="200" height="30" as="geometry" />
        </mxCell>
        <mxCell id="JR2uH29SDUwAoWFC0fF9-18" value="Main Code" style="text;html=1;align=center;verticalAlign=middle;resizable=0;points=[];autosize=1;strokeColor=none;fillColor=none;fontStyle=5" vertex="1" parent="WIyWlLk6GJQsqaUBKTNV-1">
          <mxGeometry x="60" y="10" width="80" height="30" as="geometry" />
        </mxCell>
        <mxCell id="JR2uH29SDUwAoWFC0fF9-19" value="" style="endArrow=none;dashed=1;html=1;rounded=0;" edge="1" parent="WIyWlLk6GJQsqaUBKTNV-1">
          <mxGeometry width="50" height="50" relative="1" as="geometry">
            <mxPoint x="200" y="760" as="sourcePoint" />
            <mxPoint x="200" as="targetPoint" />
          </mxGeometry>
        </mxCell>
        <mxCell id="JR2uH29SDUwAoWFC0fF9-22" value="" style="edgeStyle=orthogonalEdgeStyle;rounded=0;orthogonalLoop=1;jettySize=auto;html=1;" edge="1" parent="WIyWlLk6GJQsqaUBKTNV-1" source="JR2uH29SDUwAoWFC0fF9-20" target="JR2uH29SDUwAoWFC0fF9-21">
          <mxGeometry relative="1" as="geometry" />
        </mxCell>
        <mxCell id="JR2uH29SDUwAoWFC0fF9-20" value="Start" style="ellipse;whiteSpace=wrap;html=1;fillColor=#f8cecc;strokeColor=#b85450;" vertex="1" parent="WIyWlLk6GJQsqaUBKTNV-1">
          <mxGeometry x="240" y="40" width="120" height="80" as="geometry" />
        </mxCell>
        <mxCell id="JR2uH29SDUwAoWFC0fF9-24" value="" style="edgeStyle=orthogonalEdgeStyle;rounded=0;orthogonalLoop=1;jettySize=auto;html=1;" edge="1" parent="WIyWlLk6GJQsqaUBKTNV-1" source="JR2uH29SDUwAoWFC0fF9-21" target="JR2uH29SDUwAoWFC0fF9-23">
          <mxGeometry relative="1" as="geometry" />
        </mxCell>
        <mxCell id="JR2uH29SDUwAoWFC0fF9-29" value="" style="edgeStyle=orthogonalEdgeStyle;rounded=0;orthogonalLoop=1;jettySize=auto;html=1;" edge="1" parent="WIyWlLk6GJQsqaUBKTNV-1" source="JR2uH29SDUwAoWFC0fF9-21" target="JR2uH29SDUwAoWFC0fF9-28">
          <mxGeometry relative="1" as="geometry" />
        </mxCell>
        <mxCell id="JR2uH29SDUwAoWFC0fF9-21" value="Check if the object &lt;br&gt;is present?" style="rhombus;whiteSpace=wrap;html=1;fillColor=#d5e8d4;strokeColor=#82b366;" vertex="1" parent="WIyWlLk6GJQsqaUBKTNV-1">
          <mxGeometry x="220" y="160" width="160" height="80" as="geometry" />
        </mxCell>
        <mxCell id="JR2uH29SDUwAoWFC0fF9-27" value="" style="edgeStyle=orthogonalEdgeStyle;rounded=0;orthogonalLoop=1;jettySize=auto;html=1;" edge="1" parent="WIyWlLk6GJQsqaUBKTNV-1" source="JR2uH29SDUwAoWFC0fF9-23" target="JR2uH29SDUwAoWFC0fF9-26">
          <mxGeometry relative="1" as="geometry" />
        </mxCell>
        <mxCell id="JR2uH29SDUwAoWFC0fF9-23" value="Create new object" style="whiteSpace=wrap;html=1;fillColor=#fff2cc;strokeColor=#d6b656;" vertex="1" parent="WIyWlLk6GJQsqaUBKTNV-1">
          <mxGeometry x="240" y="280" width="120" height="40" as="geometry" />
        </mxCell>
        <mxCell id="JR2uH29SDUwAoWFC0fF9-25" value="no" style="text;html=1;align=center;verticalAlign=middle;resizable=0;points=[];autosize=1;strokeColor=none;fillColor=none;" vertex="1" parent="WIyWlLk6GJQsqaUBKTNV-1">
          <mxGeometry x="290" y="245" width="40" height="30" as="geometry" />
        </mxCell>
        <mxCell id="JR2uH29SDUwAoWFC0fF9-26" value="Stop" style="ellipse;whiteSpace=wrap;html=1;fillColor=#f8cecc;strokeColor=#b85450;" vertex="1" parent="WIyWlLk6GJQsqaUBKTNV-1">
          <mxGeometry x="240" y="360" width="120" height="80" as="geometry" />
        </mxCell>
        <mxCell id="JR2uH29SDUwAoWFC0fF9-37" style="edgeStyle=orthogonalEdgeStyle;rounded=0;orthogonalLoop=1;jettySize=auto;html=1;exitX=1;exitY=0.5;exitDx=0;exitDy=0;entryX=1;entryY=0.5;entryDx=0;entryDy=0;" edge="1" parent="WIyWlLk6GJQsqaUBKTNV-1" source="JR2uH29SDUwAoWFC0fF9-28" target="JR2uH29SDUwAoWFC0fF9-26">
          <mxGeometry relative="1" as="geometry">
            <Array as="points">
              <mxPoint x="680" y="200" />
              <mxPoint x="680" y="400" />
            </Array>
          </mxGeometry>
        </mxCell>
        <mxCell id="JR2uH29SDUwAoWFC0fF9-28" value="Check if value&lt;br&gt;is same?" style="rhombus;whiteSpace=wrap;html=1;fillColor=#d5e8d4;strokeColor=#82b366;" vertex="1" parent="WIyWlLk6GJQsqaUBKTNV-1">
          <mxGeometry x="460" y="160" width="160" height="80" as="geometry" />
        </mxCell>
        <mxCell id="JR2uH29SDUwAoWFC0fF9-30" value="yes" style="text;html=1;align=center;verticalAlign=middle;resizable=0;points=[];autosize=1;strokeColor=none;fillColor=none;" vertex="1" parent="WIyWlLk6GJQsqaUBKTNV-1">
          <mxGeometry x="395" y="177" width="40" height="30" as="geometry" />
        </mxCell>
        <mxCell id="JR2uH29SDUwAoWFC0fF9-31" value="" style="edgeStyle=orthogonalEdgeStyle;rounded=0;orthogonalLoop=1;jettySize=auto;html=1;" edge="1" parent="WIyWlLk6GJQsqaUBKTNV-1" target="JR2uH29SDUwAoWFC0fF9-32">
          <mxGeometry relative="1" as="geometry">
            <mxPoint x="540" y="240" as="sourcePoint" />
          </mxGeometry>
        </mxCell>
        <mxCell id="JR2uH29SDUwAoWFC0fF9-34" style="edgeStyle=orthogonalEdgeStyle;rounded=0;orthogonalLoop=1;jettySize=auto;html=1;exitX=0.5;exitY=1;exitDx=0;exitDy=0;entryX=1;entryY=0.5;entryDx=0;entryDy=0;" edge="1" parent="WIyWlLk6GJQsqaUBKTNV-1" source="JR2uH29SDUwAoWFC0fF9-32" target="JR2uH29SDUwAoWFC0fF9-26">
          <mxGeometry relative="1" as="geometry" />
        </mxCell>
        <mxCell id="JR2uH29SDUwAoWFC0fF9-32" value="Create new object&lt;br&gt;with device-mapping" style="whiteSpace=wrap;html=1;fillColor=#fff2cc;strokeColor=#d6b656;" vertex="1" parent="WIyWlLk6GJQsqaUBKTNV-1">
          <mxGeometry x="480" y="280" width="120" height="40" as="geometry" />
        </mxCell>
        <mxCell id="JR2uH29SDUwAoWFC0fF9-33" value="no" style="text;html=1;align=center;verticalAlign=middle;resizable=0;points=[];autosize=1;strokeColor=none;fillColor=none;" vertex="1" parent="WIyWlLk6GJQsqaUBKTNV-1">
          <mxGeometry x="530" y="245" width="40" height="30" as="geometry" />
        </mxCell>
        <mxCell id="JR2uH29SDUwAoWFC0fF9-38" value="yes" style="text;html=1;align=center;verticalAlign=middle;resizable=0;points=[];autosize=1;strokeColor=none;fillColor=none;" vertex="1" parent="WIyWlLk6GJQsqaUBKTNV-1">
          <mxGeometry x="629" y="177" width="40" height="30" as="geometry" />
        </mxCell>
        <mxCell id="JR2uH29SDUwAoWFC0fF9-42" value="" style="edgeStyle=orthogonalEdgeStyle;rounded=0;orthogonalLoop=1;jettySize=auto;html=1;" edge="1" parent="WIyWlLk6GJQsqaUBKTNV-1" source="JR2uH29SDUwAoWFC0fF9-40" target="JR2uH29SDUwAoWFC0fF9-15">
          <mxGeometry relative="1" as="geometry" />
        </mxCell>
        <mxCell id="JR2uH29SDUwAoWFC0fF9-40" value="Configure Policies" style="whiteSpace=wrap;html=1;fillColor=#fff2cc;strokeColor=#d6b656;" vertex="1" parent="WIyWlLk6GJQsqaUBKTNV-1">
          <mxGeometry x="40" y="560" width="120" height="40" as="geometry" />
        </mxCell>
      </root>
    </mxGraphModel>
  </diagram>
</mxfile>
